<?xml version="1.0" encoding="UTF-8"?>
<svg version="1.1" xmlns="http://www.w3.org/2000/svg" width="227" height="243">
<path d="M0 0 C1.30195312 -0.020625 2.60390625 -0.04125 3.9453125 -0.0625 C17.9067043 -0.11948527 17.9067043 -0.11948527 23.17089844 4.65087891 C27.49480303 9.29420956 30.33010008 14.78947085 33.25 20.375 C36.44709473 26.38912953 39.66383404 32.37528979 43.10546875 38.25390625 C43.66347168 39.2082959 44.22147461 40.16268555 44.79638672 41.14599609 C45.87481249 42.98037877 46.96086562 44.81030261 48.05517578 46.63525391 C48.53841309 47.4607373 49.02165039 48.2862207 49.51953125 49.13671875 C49.95112549 49.86076904 50.38271973 50.58481934 50.82739258 51.33081055 C51.625 53.25 51.625 53.25 50.625 56.25 C47.37547252 56.39546783 44.12678287 56.4841168 40.875 56.5625 C39.95460938 56.60439453 39.03421875 56.64628906 38.0859375 56.68945312 C31.26152941 56.81308371 31.26152941 56.81308371 28.1875 54.09375 C27.671875 53.1553125 27.15625 52.216875 26.625 51.25 C26.06296875 50.29480469 25.5009375 49.33960938 24.921875 48.35546875 C24.41140625 47.39253906 23.9009375 46.42960937 23.375 45.4375 C22.85421875 44.46167969 22.3334375 43.48585937 21.796875 42.48046875 C21.21679688 41.37638672 21.21679688 41.37638672 20.625 40.25 C20.22023438 40.93835938 19.81546875 41.62671875 19.3984375 42.3359375 C17.79552201 44.96980304 16.11865962 47.54083135 14.41381836 50.109375 C5.92881828 62.20598609 5.92881828 62.20598609 3.625 76.25 C4.67910472 78.70574805 5.74690585 80.88429153 7.0625 83.1875 C7.41505859 83.82631104 7.76761719 84.46512207 8.13085938 85.12329102 C12.11325851 92.27120926 16.35040207 99.27409366 20.625 106.25 C21.10710937 105.26257813 21.58921875 104.27515625 22.0859375 103.2578125 C22.72374577 101.9634369 23.36177829 100.66917179 24 99.375 C24.31710938 98.72402344 24.63421875 98.07304687 24.9609375 97.40234375 C26.31390121 94.66822959 27.45272518 92.42227482 29.625 90.25 C31.87158203 90.02294922 31.87158203 90.02294922 34.6328125 90.0546875 C36.11201172 90.06435547 36.11201172 90.06435547 37.62109375 90.07421875 C39.16990234 90.09935547 39.16990234 90.09935547 40.75 90.125 C42.31041016 90.13853516 42.31041016 90.13853516 43.90234375 90.15234375 C46.47679092 90.17596253 49.05078212 90.20889851 51.625 90.25 C50.8640827 93.59856331 49.7165027 95.96086945 47.875 98.875 C45.83495418 102.19128302 43.94937109 105.4972147 42.25 109 C39.32193558 114.98751635 35.98669776 120.72786966 32.63916016 126.48632812 C31.65121799 128.20440569 30.69042949 129.93800776 29.73046875 131.671875 C29.13878906 132.72890625 28.54710937 133.7859375 27.9375 134.875 C27.41800781 135.81601563 26.89851563 136.75703125 26.36328125 137.7265625 C22.80469236 142.89251402 19.11324306 144.79893188 13.10498047 145.92773438 C8.79329712 146.488024 4.53004706 146.53812038 0.1875 146.5 C-1.12831055 146.51160156 -1.12831055 146.51160156 -2.47070312 146.5234375 C-17.40243527 146.47942355 -17.40243527 146.47942355 -23.125 142.1875 C-30.21042991 132.93707762 -36.17894585 122.79679864 -41.3125 112.33984375 C-43.42830438 108.06349144 -45.80876667 103.97216498 -48.25 99.875 C-48.68691162 99.13548096 -49.12382324 98.39596191 -49.57397461 97.6340332 C-52.43459925 92.79968862 -55.33990676 87.99455433 -58.31640625 83.23046875 C-60.79721582 78.58924936 -61.36906164 73.38484252 -60.375 68.25 C-58.16321044 62.70616382 -55.24616219 57.473208 -52.375 52.25 C-51.715 52.25 -51.055 52.25 -50.375 52.25 C-50.25664795 51.67677002 -50.1382959 51.10354004 -50.01635742 50.51293945 C-49.32986845 48.09075966 -48.36798597 46.22245288 -47.11328125 44.04296875 C-46.6642041 43.2545459 -46.21512695 42.46612305 -45.75244141 41.65380859 C-45.07060791 40.46392334 -45.07060791 40.46392334 -44.375 39.25 C-43.57423226 37.81003137 -42.77598195 36.36865941 -41.98046875 34.92578125 C-40.30341888 31.8960506 -38.61836978 28.87091717 -36.9296875 25.84765625 C-35.32524326 22.97297699 -33.7465381 20.08729865 -32.1953125 17.18359375 C-28.69099387 10.70052033 -25.61630095 5.37161383 -19.375 1.25 C-13.09777259 -0.45650854 -6.45145961 0.02539945 0 0 Z M-6.4375 12.4453125 C-8.25828807 15.08105007 -9.64981508 17.60082993 -11 20.5 C-14.64506327 27.99314271 -18.90633687 35.08726704 -23.17626953 42.23730469 C-25.449914 46.05480468 -27.68142607 49.89667912 -29.9140625 53.73828125 C-30.79905272 55.25980187 -31.68843495 56.77879509 -32.5859375 58.29296875 C-36.26316408 64.55531326 -39.16424132 69.57213979 -38.015625 76.92578125 C-36.6777588 81.7796251 -33.93480484 85.80014087 -31.25488281 90.00927734 C-28.20639522 94.83585167 -25.37038333 99.74566589 -22.625 104.75 C-21.7542575 106.32701691 -20.88315581 107.90383554 -20.01171875 109.48046875 C-19.57520996 110.27114746 -19.13870117 111.06182617 -18.68896484 111.87646484 C-16.62013555 115.61358086 -14.53100456 119.33916466 -12.4375 123.0625 C-12.07237305 123.71347656 -11.70724609 124.36445313 -11.33105469 125.03515625 C-10.35144705 126.77668095 -9.36352063 128.51351897 -8.375 130.25 C-7.83746094 131.20261719 -7.29992187 132.15523438 -6.74609375 133.13671875 C-5.54768396 135.37487852 -5.54768396 135.37487852 -3.375 136.25 C0.20029739 136.63861928 1.95140241 136.75519819 4.875 134.5625 C6.74629955 132.08971131 7.88867853 130.26891804 8.625 127.25 C7.85272827 124.48259665 7.85272827 124.48259665 6.625 122.25 C5.965 122.25 5.305 122.25 4.625 122.25 C4.55152344 121.59515625 4.47804687 120.9403125 4.40234375 120.265625 C3.32929746 116.10285248 1.31433625 112.71437901 -0.8125 109 C-1.25335938 108.21874756 -1.69421875 107.43749512 -2.1484375 106.63256836 C-9.93451413 92.74155248 -9.93451413 92.74155248 -18.375 79.25 C-18.98100367 73.0741097 -18.92689742 66.99176919 -16.375 61.25 C-15.715 61.25 -15.055 61.25 -14.375 61.25 C-13.99988281 60.46496094 -13.62476562 59.67992187 -13.23828125 58.87109375 C-10.66952397 53.59770035 -8.12715258 48.67446292 -4.58203125 44.00390625 C-2.63852021 41.17984004 -1.25646854 38.09927551 0.21875 35.01171875 C2.34921524 30.82772175 4.86390942 26.88369594 7.3671875 22.9140625 C8.82920819 20.40796723 8.82920819 20.40796723 8.41015625 18.06640625 C6.43097967 13.35274813 6.43097967 13.35274813 2.625 10.25 C-2.49688112 9.56374686 -2.49688112 9.56374686 -6.4375 12.4453125 Z " fill="#FBFBFB" transform="translate(100.375,50.75)"/>
<path d="M0 0 C8.24534977 3.68095972 12.13334253 11.26767408 15.80859375 19.12890625 C17.82171534 23.21558956 20.10102498 27.09207888 22.4375 31 C25.57423486 36.28285965 28.70590693 41.56508676 31.6875 46.9375 C32.25855469 47.95585938 32.82960937 48.97421875 33.41796875 50.0234375 C34.5 52.5625 34.5 52.5625 33.5 55.5625 C15.79031885 57.01553835 15.79031885 57.01553835 11.1171875 54.05078125 C9.55345446 51.63369675 8.55237523 49.24259748 7.5 46.5625 C6.25500845 44.33949539 4.9818384 42.13213928 3.6875 39.9375 C3.00848235 38.73807216 2.33143849 37.53752504 1.65625 36.3359375 C-0.95002377 31.73876016 -3.68802137 27.22188627 -6.44262695 22.71240234 C-8.65061845 19.07329598 -10.61012692 15.37418768 -12.5 11.5625 C-15.14413593 7.09305733 -17.22333432 3.91935689 -22.5 2.5625 C-22.5 1.9025 -22.5 1.2425 -22.5 0.5625 C-16.88814372 -2.24342814 -6.03748623 -0.94563037 0 0 Z " fill="#FBFBFB" transform="translate(158.5,51.4375)"/>
<path d="M0 0 C0.91644287 0.00523682 1.83288574 0.01047363 2.77709961 0.01586914 C4.26113281 0.02070313 4.26113281 0.02070313 5.77514648 0.02563477 C6.81606445 0.03401367 7.85698242 0.04239258 8.92944336 0.05102539 C10.49662109 0.05779297 10.49662109 0.05779297 12.09545898 0.06469727 C14.68600996 0.07652627 17.27644895 0.0930085 19.86694336 0.11352539 C18.57381424 4.6982559 16.62105326 8.54132394 14.27612305 12.64624023 C12.81386768 15.2064538 11.40243101 17.78976059 9.99975586 20.38305664 C7.43417173 25.11484321 4.85369942 29.83825392 2.26489258 34.55737305 C1.09299207 36.70019498 -0.0665982 38.84899781 -1.22290039 41.00024414 C-7.79055198 52.86967343 -7.79055198 52.86967343 -13.13305664 55.11352539 C-21.10722784 56.42021731 -29.16737092 56.60709146 -37.13305664 55.11352539 C-37.13305664 54.45352539 -37.13305664 53.79352539 -37.13305664 53.11352539 C-36.24618164 52.76290039 -35.35930664 52.41227539 -34.44555664 52.05102539 C-28.06666748 48.31997701 -25.1044417 41.46278507 -22.00805664 34.98852539 C-19.87359119 30.57949445 -17.73040039 26.27493717 -15.13305664 22.11352539 C-11.35796623 15.91687839 -7.75253247 9.66650772 -4.33227539 3.26586914 C-2.58942069 0.13781397 -2.58942069 0.13781397 0 0 Z " fill="#FCFCFC" transform="translate(173.133056640625,140.886474609375)"/>
<path d="M0 0 C1.65 0 3.3 0 5 0 C5.49371094 0.92683594 5.98742187 1.85367188 6.49609375 2.80859375 C7.14313499 4.01827955 7.79027554 5.22791222 8.4375 6.4375 C8.92573242 7.35499023 8.92573242 7.35499023 9.42382812 8.29101562 C10.93715142 11.33716206 10.93715142 11.33716206 13 14 C13.63407261 19.55804271 10.93674009 23.25700562 8.3125 27.96484375 C6.82708734 31.39986053 6.45376623 33.30094323 7 37 C8.32011635 39.13902669 9.70108323 41.24112282 11.125 43.3125 C12.64396816 45.84446088 13.67797492 48.04625267 14 51 C12.38481277 57.14610207 8.34927985 63.38945325 4 68 C2.515 68.495 2.515 68.495 1 69 C0.38125 67.865625 -0.2375 66.73125 -0.875 65.5625 C-3.57135917 60.70594529 -6.3726675 55.91345651 -9.1875 51.125 C-9.62755371 50.37549072 -10.06760742 49.62598145 -10.52099609 48.85375977 C-10.94074707 48.14147217 -11.36049805 47.42918457 -11.79296875 46.6953125 C-12.35794067 45.7364917 -12.35794067 45.7364917 -12.93432617 44.75830078 C-13.9122774 43.14473727 -14.95339732 41.56990402 -16 40 C-16.73077709 33.42300616 -16.72631981 27.58947972 -13 22 C-12.34 22 -11.68 22 -11 22 C-10.9278125 21.32195312 -10.855625 20.64390625 -10.78125 19.9453125 C-9.75816125 16.08826793 -7.71609191 13.13395869 -5.5 9.875 C-2.28680892 5.18361164 -2.28680892 5.18361164 0 0 Z " fill="#FBFBFB" transform="translate(97,90)"/>
<path d="M0 0 C4.7617732 1.58725773 5.78523677 5.71227241 8 10 C8.63421875 11.08861328 8.63421875 11.08861328 9.28125 12.19921875 C9.6628125 12.87597656 10.044375 13.55273438 10.4375 14.25 C10.78683594 14.85328125 11.13617188 15.4565625 11.49609375 16.078125 C12.23786429 18.90720335 11.25154226 20.4066789 10 23 C9.62101562 23.83660156 9.24203125 24.67320313 8.8515625 25.53515625 C8.44679688 26.36917969 8.04203125 27.20320313 7.625 28.0625 C7.02558594 29.31740234 7.02558594 29.31740234 6.4140625 30.59765625 C4.90071942 33.16866728 3.18658391 34.98555142 1 37 C0.03810003 35.27281484 -0.91936508 33.54315942 -1.875 31.8125 C-2.67550781 30.36810547 -2.67550781 30.36810547 -3.4921875 28.89453125 C-4.8423678 26.30260482 -5.97098329 23.73238902 -7 21 C-8.32 21 -9.64 21 -11 21 C-10.36816907 17.9164232 -9.32811656 15.58622008 -7.71484375 12.890625 C-7.26689453 12.13652344 -6.81894531 11.38242188 -6.35742188 10.60546875 C-5.88884766 9.82816406 -5.42027344 9.05085938 -4.9375 8.25 C-4.46505859 7.45722656 -3.99261719 6.66445312 -3.50585938 5.84765625 C-2.34173427 3.8956889 -1.17300098 1.94664195 0 0 Z " fill="#AAA895" transform="translate(109,70)"/>
<path d="M0 0 C3.4108912 3.10770087 5.61852221 6.35828227 7.875 10.375 C8.51179688 11.47585937 9.14859375 12.57671875 9.8046875 13.7109375 C11.25399996 17.69891492 10.75369068 19.22030643 9 23 C8.67 23.66 8.34 24.32 8 25 C7.34 25 6.68 25 6 25 C5.731875 25.886875 5.46375 26.77375 5.1875 27.6875 C4.08289181 30.76877548 2.77150856 33.26221405 1 36 C-0.32 35.67 -1.64 35.34 -3 35 C-3 34.01 -3 33.02 -3 32 C-3.66 32 -4.32 32 -5 32 C-6.00732399 30.06629769 -7.00563288 28.12789694 -8 26.1875 C-8.556875 25.10855469 -9.11375 24.02960938 -9.6875 22.91796875 C-11 20 -11 20 -11 17 C-10.34 17 -9.68 17 -9 17 C-8.74476562 16.30519531 -8.48953125 15.61039063 -8.2265625 14.89453125 C-6.85034172 11.64682551 -5.17460687 8.72017084 -3.375 5.6875 C-2.74335937 4.61886719 -2.11171875 3.55023438 -1.4609375 2.44921875 C-0.97882813 1.64097656 -0.49671875 0.83273438 0 0 Z " fill="#AAA996" transform="translate(110,141)"/>
<path d="M0 0 C4.7617732 1.58725773 5.78523677 5.71227241 8 10 C8.4228125 10.72574219 8.845625 11.45148438 9.28125 12.19921875 C9.6628125 12.87597656 10.044375 13.55273438 10.4375 14.25 C10.96150391 15.15492187 10.96150391 15.15492187 11.49609375 16.078125 C12.23786429 18.90720335 11.25154226 20.4066789 10 23 C9.62101562 23.83660156 9.24203125 24.67320313 8.8515625 25.53515625 C8.44679688 26.36917969 8.04203125 27.20320313 7.625 28.0625 C7.22539063 28.89910156 6.82578125 29.73570313 6.4140625 30.59765625 C5 33 5 33 1 37 C-0.98 33.04 -2.96 29.08 -5 25 C-3.35 25 -1.7 25 0 25 C0 25.66 0 26.32 0 27 C0.99 26.34 1.98 25.68 3 25 C4.32567199 24.31822584 5.65753688 23.64808564 7 23 C6.814375 22.29875 6.62875 21.5975 6.4375 20.875 C5.94843024 17.66111302 6.33768442 15.16439664 7 12 C6.34 11.67 5.68 11.34 5 11 C4.5978125 9.7625 4.5978125 9.7625 4.1875 8.5 C3.795625 7.675 3.40375 6.85 3 6 C0.45224694 5.10613836 0.45224694 5.10613836 -2 5 C-1.34 3.35 -0.68 1.7 0 0 Z " fill="#B3B2A7" transform="translate(109,70)"/>
<path d="M0 0 C3.29182348 2.78459282 5.09119629 6.46382181 7.125 10.1875 C7.92038967 11.62379941 8.71596834 13.05999417 9.51171875 14.49609375 C9.9195459 15.23585449 10.32737305 15.97561523 10.74755859 16.73779297 C13.16193646 21.09873357 15.62591937 25.4319031 18.08056641 29.77026367 C19.49740214 32.28409818 20.89629006 34.78037894 22.12890625 37.390625 C22.90459776 39.19134829 22.90459776 39.19134829 25 40 C29.08388307 40.40305195 29.08388307 40.40305195 32.75 38.875 C34.19370547 36.9072981 34.19370547 36.9072981 34.9375 33.875 C35.288125 32.92625 35.63875 31.9775 36 31 C38.125 30.125 38.125 30.125 40 30 C39.38655243 31.68698082 38.70286303 33.34827188 38 35 C37.76667969 35.60070312 37.53335938 36.20140625 37.29296875 36.8203125 C35.91648811 39.82468577 34.97884644 41.59569386 31.84375 42.890625 C28.50131872 43.65026847 25.4292178 44 22 44 C22 43.01 22 42.02 22 41 C20.515 41.495 20.515 41.495 19 42 C18.95875 41.071875 18.9175 40.14375 18.875 39.1875 C18.0739758 33.52311462 14.84229963 28.85985524 12 24 C11.05729488 22.35714253 10.11933424 20.71154777 9.1875 19.0625 C8.78917969 18.37285156 8.39085938 17.68320313 7.98046875 16.97265625 C7 15 7 15 6.48828125 12.80859375 C6.32714844 12.21175781 6.16601562 11.61492187 6 11 C5.34 10.67 4.68 10.34 4 10 C1.15828495 7.95396516 0.97857537 6.88508607 0.3125 3.3125 C0.209375 2.219375 0.10625 1.12625 0 0 Z " fill="#F0F0F0" transform="translate(72,146)"/>
<path d="M0 0 C0.66 0.33 1.32 0.66 2 1 C1.70996094 1.56589844 1.41992188 2.13179687 1.12109375 2.71484375 C-0.35115534 5.71576959 -1.61737129 8.79393188 -2.90234375 11.87890625 C-4.02595519 14.0501554 -5.26369681 15.31113679 -7 17 C-7.69437747 18.99054876 -8.35610218 20.99255385 -9 23 C-12.39835488 30.69917744 -12.39835488 30.69917744 -15 32 C-15.33 32.99 -15.66 33.98 -16 35 C-16.66 35 -17.32 35 -18 35 C-18.33 35.99 -18.66 36.98 -19 38 C-21 40 -21 40 -23.625 40.125 C-24.40875 40.08375 -25.1925 40.0425 -26 40 C-26 39.34 -26 38.68 -26 38 C-25.113125 37.649375 -24.22625 37.29875 -23.3125 36.9375 C-16.93361084 33.20645162 -13.97138506 26.34925968 -10.875 19.875 C-8.74009326 15.46505751 -6.58790532 11.16819484 -4 7 C-3.26648071 5.731674 -2.53673312 4.46115135 -1.8125 3.1875 C-1.214375 2.135625 -0.61625 1.08375 0 0 Z " fill="#F1F1F1" transform="translate(162,156)"/>
<path d="M0 0 C0.433125 0.9590625 0.433125 0.9590625 0.875 1.9375 C1.82823451 4.15206079 1.82823451 4.15206079 4 5 C4 5.66 4 6.32 4 7 C4.66 7 5.32 7 6 7 C6 7.66 6 8.32 6 9 C10.71393321 9.04970487 15.4277114 9.085863 20.1418457 9.10986328 C21.74310974 9.11987623 23.34435571 9.1334906 24.94555664 9.15087891 C27.25671876 9.17533565 29.56763762 9.18653029 31.87890625 9.1953125 C32.58648575 9.20563507 33.29406525 9.21595764 34.02308655 9.22659302 C38.75834265 9.22764468 42.55316497 8.46788729 47 7 C47 7.66 47 8.32 47 9 C37.21241819 14.87254908 17.91621652 13.27555259 7.05859375 10.76171875 C2.9331245 9.23521685 0.79340257 6.39789976 -1.3125 2.6875 C-1.539375 2.130625 -1.76625 1.57375 -2 1 C-1.34 0.67 -0.68 0.34 0 0 Z " fill="#EAEAEA" transform="translate(75,185)"/>
<path d="M0 0 C0.99 0 1.98 0 3 0 C7 6.625 7 6.625 7 10 C12.94 9.67 18.88 9.34 25 9 C23.68 7.02 22.36 5.04 21 3 C21 2.01 21 1.02 21 0 C24 1 24 1 25.203125 2.7421875 C25.54859375 3.44601563 25.8940625 4.14984375 26.25 4.875 C26.60578125 5.57367188 26.9615625 6.27234375 27.328125 6.9921875 C28 9 28 9 27 12 C9.0405117 13.47353445 9.0405117 13.47353445 4.37109375 10.1015625 C2.85244735 7.74937334 1.83373932 5.66704458 1 3 C0.67 2.01 0.34 1.02 0 0 Z " fill="#E9E9E9" transform="translate(165,95)"/>
<path d="M0 0 C3.75998043 1.46176345 5.0927581 3.28325425 7.0625 6.75 C7.54847656 7.59046875 8.03445312 8.4309375 8.53515625 9.296875 C9.53154584 11.13554592 10.49275181 12.99362591 11.421875 14.8671875 C13.22416511 18.44500104 15.18532469 21.90649377 17.1875 25.375 C17.55552734 26.01566406 17.92355469 26.65632813 18.30273438 27.31640625 C19.20033311 28.87846119 20.0999556 30.43935295 21 32 C20.01 32.495 20.01 32.495 19 33 C18.34 31.35 17.68 29.7 17 28 C16.34 28 15.68 28 15 28 C14.56945312 27.13761719 14.13890625 26.27523437 13.6953125 25.38671875 C12.61097676 23.22054575 11.52280199 21.05628752 10.4296875 18.89453125 C9.91664063 17.87746094 9.40359375 16.86039063 8.875 15.8125 C8.09769531 14.27529297 8.09769531 14.27529297 7.3046875 12.70703125 C6 10 6 10 5 7 C4.34 7 3.68 7 3 7 C0 2.61538462 0 2.61538462 0 0 Z " fill="#EAEAEA" transform="translate(163,56)"/>
<path d="M0 0 C0.69287109 0.01804688 1.38574219 0.03609375 2.09960938 0.0546875 C3.79617664 0.10148936 5.49202476 0.17322376 7.1875 0.25 C7.1875 0.58 7.1875 0.91 7.1875 1.25 C5.63289063 1.37955078 5.63289063 1.37955078 4.046875 1.51171875 C2.67696132 1.65246331 1.30717551 1.79445625 -0.0625 1.9375 C-1.08537109 2.01774414 -1.08537109 2.01774414 -2.12890625 2.09960938 C-5.94941054 2.52617053 -7.54019394 2.95199618 -10.171875 5.83203125 C-10.71328125 6.62996094 -11.2546875 7.42789063 -11.8125 8.25 C-12.4725 8.25 -13.1325 8.25 -13.8125 8.25 C-13.8125 9.24 -13.8125 10.23 -13.8125 11.25 C-14.4725 11.25 -15.1325 11.25 -15.8125 11.25 C-16.4725 13.23 -17.1325 15.21 -17.8125 17.25 C-18.4725 17.25 -19.1325 17.25 -19.8125 17.25 C-19.17525892 13.91207052 -17.93743857 11.57207249 -16.0625 8.75 C-15.57265625 7.9971875 -15.0828125 7.244375 -14.578125 6.46875 C-10.24148785 1.01917058 -6.87135257 -0.34192376 0 0 Z " fill="#EFEFEF" transform="translate(88.8125,51.75)"/>
<path d="M0 0 C3 1 3 1 4.8125 4.5 C5.14636719 5.22058594 5.48023438 5.94117188 5.82421875 6.68359375 C7.07430409 9.14638645 8.53454076 11.30644711 10.125 13.5625 C12.7200621 17.33713579 14.04971272 20.53364976 15 25 C14.34 25 13.68 25 13 25 C10.66881277 20.93343766 8.34229895 16.86427351 6.02197266 12.79150391 C5.13594265 11.23830558 4.24605377 9.68730978 3.35546875 8.13671875 C2.90816406 7.34910156 2.46085937 6.56148437 2 5.75 C1.4121875 4.72132813 1.4121875 4.72132813 0.8125 3.671875 C0 2 0 2 0 0 Z " fill="#EBEBEB" transform="translate(42,131)"/>
<path d="M0 0 C0.66 0.66 1.32 1.32 2 2 C1.69964844 2.61746094 1.39929688 3.23492187 1.08984375 3.87109375 C-1.70112457 10.08691133 -2.43847399 14.35686556 -1 21 C-0.7215625 22.5159375 -0.7215625 22.5159375 -0.4375 24.0625 C-0.293125 24.701875 -0.14875 25.34125 0 26 C-3.92982637 23.38011575 -4.01686331 21.53755394 -5 17 C-5.78300578 11.12745666 -3.45291801 6.23092155 -1 1 C-0.67 0.67 -0.34 0.34 0 0 Z " fill="#DCDCDC" transform="translate(65,109)"/>
<path d="M0 0 C0.99 0 1.98 0 3 0 C3.5625 1.9375 3.5625 1.9375 4 4 C3 5 3 5 1.05053711 5.11352539 C0.2178833 5.10828857 -0.61477051 5.10305176 -1.47265625 5.09765625 C-2.37177734 5.09443359 -3.27089844 5.09121094 -4.19726562 5.08789062 C-5.14279297 5.07951172 -6.08832031 5.07113281 -7.0625 5.0625 C-8.01189453 5.05798828 -8.96128906 5.05347656 -9.93945312 5.04882812 C-12.29303065 5.0370011 -14.64648477 5.02052025 -17 5 C-17.33 4.34 -17.66 3.68 -18 3 C-11.73 2.67 -5.46 2.34 1 2 C0.67 1.34 0.34 0.68 0 0 Z " fill="#DBDBDB" transform="translate(148,102)"/>
<path d="M0 0 C0.66 0.66 1.32 1.32 2 2 C1.01 2 0.02 2 -1 2 C-0.67 2.99 -0.34 3.98 0 5 C-0.66 5 -1.32 5 -2 5 C-2.4021875 6.2684375 -2.4021875 6.2684375 -2.8125 7.5625 C-4.0478595 11.13854067 -5.476988 14.53860908 -7 18 C-8.203125 16.41796875 -8.203125 16.41796875 -9 14 C-8.03302828 11.55571038 -7.06492068 9.55282712 -5.75 7.3125 C-5.26080078 6.42208008 -5.26080078 6.42208008 -4.76171875 5.51367188 C-2.30519593 1.15259797 -2.30519593 1.15259797 0 0 Z M-10 16 C-9.67 16.66 -9.34 17.32 -9 18 C-9.66 17.67 -10.32 17.34 -11 17 C-10.67 16.67 -10.34 16.34 -10 16 Z " fill="#F2F2F2" transform="translate(67,73)"/>
<path d="M0 0 C5.28 0.33 10.56 0.66 16 1 C16 1.33 16 1.66 16 2 C15.00097656 2.04898438 14.00195312 2.09796875 12.97265625 2.1484375 C11.68230469 2.22320312 10.39195312 2.29796875 9.0625 2.375 C7.77472656 2.44460937 6.48695313 2.51421875 5.16015625 2.5859375 C4.11730469 2.72257813 3.07445312 2.85921875 2 3 C1.67 3.66 1.34 4.32 1 5 C0.34 5 -0.32 5 -1 5 C-1.33 6.32 -1.66 7.64 -2 9 C-3.32 9.33 -4.64 9.66 -6 10 C-4.02 6.7 -2.04 3.4 0 0 Z " fill="#E7E7E7" transform="translate(171,141)"/>
<path d="M0 0 C2.52588702 2.36292656 3.88820837 3.66462511 5 7 C4.01 7.66 3.02 8.32 2 9 C1.67 8.01 1.34 7.02 1 6 C-0.32 6.33 -1.64 6.66 -3 7 C-3 7.99 -3 8.98 -3 10 C-3.66 10 -4.32 10 -5 10 C-3.66511872 6.40608886 -2.03977277 3.24509304 0 0 Z " fill="#B6B7AE" transform="translate(110,141)"/>
<path d="M0 0 C5.61 0 11.22 0 17 0 C17.33 0.66 17.66 1.32 18 2 C17.34 2.66 16.68 3.32 16 4 C16 3.34 16 2.68 16 2 C10.72 2 5.44 2 0 2 C0 1.34 0 0.68 0 0 Z " fill="#F1F1F1" transform="translate(131,141)"/>
<path d="M0 0 C0.66 0 1.32 0 2 0 C0.51481201 4.04301175 -1.42877998 7.61146256 -3.625 11.3125 C-4.25664063 12.38113281 -4.88828125 13.44976562 -5.5390625 14.55078125 C-6.02117187 15.35902344 -6.50328125 16.16726562 -7 17 C-7.66 16.67 -8.32 16.34 -9 16 C-8.57316368 14.72554546 -8.13302798 13.45554118 -7.6875 12.1875 C-7.44386719 11.47980469 -7.20023437 10.77210937 -6.94921875 10.04296875 C-5.92265138 7.8335254 -4.75854309 6.65726574 -3 5 C-2.484375 4.113125 -1.96875 3.22625 -1.4375 2.3125 C-0.7259375 1.1678125 -0.7259375 1.1678125 0 0 Z " fill="#E3E3E3" transform="translate(89,69)"/>
<path d="M0 0 C0 4.68766574 -2.08914271 8.37583857 -5 12 C-8.8125 13.0625 -8.8125 13.0625 -12 13 C-11.67 12.34 -11.34 11.68 -11 11 C-10.21625 10.773125 -9.4325 10.54625 -8.625 10.3125 C-4.86977055 8.43488527 -4.4948529 5.80508012 -3 2 C-2.01 1.34 -1.02 0.68 0 0 Z " fill="#E1E1E1" transform="translate(111,176)"/>
<path d="M0 0 C1.32 0.33 2.64 0.66 4 1 C4 1.99 4 2.98 4 4 C3.34 4 2.68 4 2 4 C2.33 5.65 2.66 7.3 3 9 C2.01 9.495 2.01 9.495 1 10 C-0.625 7.8125 -0.625 7.8125 -2 5 C-1.1875 2.1875 -1.1875 2.1875 0 0 Z " fill="#F0F0F0" transform="translate(106,57)"/>
<path d="M0 0 C0.99 0.33 1.98 0.66 3 1 C-3.25 11.625 -3.25 11.625 -6 13 C-5.51675181 7.84535266 -2.81389239 4.18449681 0 0 Z " fill="#F1F1F1" transform="translate(92,99)"/>
<path d="M0 0 C5.94 0 11.88 0 18 0 C17.34 1.98 16.68 3.96 16 6 C15.34 5.34 14.68 4.68 14 4 C14.33 3.34 14.66 2.68 15 2 C10.05 1.67 5.1 1.34 0 1 C0 0.67 0 0.34 0 0 Z " fill="#F5F5F5" transform="translate(175,141)"/>
<path d="M0 0 C0.66 0 1.32 0 2 0 C0.16508812 4.74018901 -1.91941459 9.36413251 -4 14 C-4.66 14 -5.32 14 -6 14 C-5.41892368 10.2397015 -4.34800504 7.46964968 -2.4375 4.1875 C-1.98246094 3.39730469 -1.52742188 2.60710937 -1.05859375 1.79296875 C-0.53458984 0.90544922 -0.53458984 0.90544922 0 0 Z " fill="#F1F1F1" transform="translate(48,103)"/>
<path d="M0 0 C0.65234375 1.765625 0.65234375 1.765625 1 4 C0.00390625 5.921875 0.00390625 5.921875 -1.4375 7.75 C-1.91058594 8.36359375 -2.38367188 8.9771875 -2.87109375 9.609375 C-3.24363281 10.06828125 -3.61617188 10.5271875 -4 11 C-4.66 10.01 -5.32 9.02 -6 8 C-4.768606 4.30581799 -2.79208646 2.64890254 0 0 Z " fill="#F0F0F0" transform="translate(128,181)"/>
<path d="M0 0 C2.79163712 2.40768703 3.89717557 4.76146616 5.1875 8.1875 C5.53167969 9.08855469 5.87585938 9.98960937 6.23046875 10.91796875 C6.48441406 11.60503906 6.73835938 12.29210937 7 13 C6.01 13.495 6.01 13.495 5 14 C3.96958487 12.04669132 2.9509107 10.08718472 1.9375 8.125 C1.08478516 6.48917969 1.08478516 6.48917969 0.21484375 4.8203125 C-0.18605469 3.88960937 -0.58695313 2.95890625 -1 2 C-0.67 1.34 -0.34 0.68 0 0 Z " fill="#ECECEC" transform="translate(60,160)"/>
<path d="M0 0 C0 0.99 0 1.98 0 3 C-6.435 3.495 -6.435 3.495 -13 4 C-13.33 3.34 -13.66 2.68 -14 2 C-9.34500026 1.18537505 -4.69023454 0.56606279 0 0 Z " fill="#EFEFEF" transform="translate(160,193)"/>
<path d="M0 0 C0.99 0 1.98 0 3 0 C3.6509259 1.24735567 4.29551669 2.49801832 4.9375 3.75 C5.29714844 4.44609375 5.65679687 5.1421875 6.02734375 5.859375 C6.95558182 7.90224433 7.53166578 9.81115376 8 12 C7.34 12 6.68 12 6 12 C4.02 8.04 2.04 4.08 0 0 Z " fill="#E4E4E4" transform="translate(49,144)"/>
<path d="M0 0 C0.66 0.33 1.32 0.66 2 1 C2.28883414 5.06534057 1.57875609 7.33058355 -0.5 10.8125 C-0.9640625 11.60269531 -1.428125 12.39289063 -1.90625 13.20703125 C-2.44765625 14.09455078 -2.44765625 14.09455078 -3 15 C-4.02444688 11.82421466 -4.12311432 11.26301696 -2.625 8.0625 C-2.08875 7.051875 -1.5525 6.04125 -1 5 C-0.30092586 2.26427415 -0.30092586 2.26427415 0 0 Z " fill="#E5E5E4" transform="translate(108,103)"/>
<path d="M0 0 C3.64187858 1.21395953 3.91745993 2.09006077 5.6875 5.375 C6.34298828 6.56222656 6.34298828 6.56222656 7.01171875 7.7734375 C8 10 8 10 8 13 C7.34 13 6.68 13 6 13 C3.81673892 8.72886302 1.68673918 4.49797113 0 0 Z " fill="#EFEFEF" transform="translate(139,85)"/>
<path d="M0 0 C0.598125 0.165 1.19625 0.33 1.8125 0.5 C4.11344336 1.1114124 4.11344336 1.1114124 7 1 C6.1875 3.4375 6.1875 3.4375 5 6 C4.01 6.33 3.02 6.66 2 7 C0.5393715 4.35261084 0 3.10551666 0 0 Z " fill="#EEEFE9" transform="translate(96,152)"/>
<path d="M0 0 C3.21602818 2.36970497 5.64124592 4.17078395 7 8 C7 8.99 7 9.98 7 11 C4 10 4 10 2.83203125 8.22265625 C2.49558594 7.50980469 2.15914063 6.79695312 1.8125 6.0625 C1.46832031 5.35222656 1.12414062 4.64195312 0.76953125 3.91015625 C0 2 0 2 0 0 Z " fill="#F0F0F0" transform="translate(85,134)"/>
<path d="M0 0 C0.66 0 1.32 0 2 0 C1.67 1.98 1.34 3.96 1 6 C0.34 6 -0.32 6 -1 6 C-1 6.66 -1 7.32 -1 8 C-1.99 8.33 -2.98 8.66 -4 9 C-3.35494404 5.51669784 -2.01782732 2.90567134 0 0 Z " fill="#BABBAF" transform="translate(102,82)"/>
<path d="M0 0 C1 3 1 3 0.29296875 5.0078125 C-0.25423828 6.05582031 -0.25423828 6.05582031 -0.8125 7.125 C-1.16957031 7.82882813 -1.52664062 8.53265625 -1.89453125 9.2578125 C-3 11 -3 11 -5 12 C-4.37343743 7.73937456 -3.1323664 3.1323664 0 0 Z " fill="#EEEEEE" transform="translate(172,176)"/>
<path d="M0 0 C0.33 0.66 0.66 1.32 1 2 C-0.21484375 4.3828125 -0.21484375 4.3828125 -1.9375 7.125 C-2.50339844 8.03507812 -3.06929688 8.94515625 -3.65234375 9.8828125 C-4.09707031 10.58148438 -4.54179688 11.28015625 -5 12 C-5.66 11.67 -6.32 11.34 -7 11 C-6.40361667 9.72549553 -5.79752584 8.45553123 -5.1875 7.1875 C-4.85105469 6.47980469 -4.51460938 5.77210937 -4.16796875 5.04296875 C-2.99354529 2.98870965 -1.74371984 1.58383722 0 0 Z " fill="#EDEDED" transform="translate(76,93)"/>
<path d="M0 0 C1.65 0 3.3 0 5 0 C4.67 1.65 4.34 3.3 4 5 C2.68 5.33 1.36 5.66 0 6 C0 4 0 2 0 0 Z " fill="#AEB0A4" transform="translate(108,171)"/>
<path d="M0 0 C2.12508244 3.18762365 2.5020163 5.26512223 3 9 C2.01 9.495 2.01 9.495 1 10 C-2 5.375 -2 5.375 -2 2 C-1.34 2 -0.68 2 0 2 C0 1.34 0 0.68 0 0 Z " fill="#BDBFB2" transform="translate(101,156)"/>
<path d="M0 0 C0.99 0 1.98 0 3 0 C6.22265625 5.17578125 6.22265625 5.17578125 7 7 C6.67 7.99 6.34 8.98 6 10 C3.25722422 6.80009492 1.3697164 3.99500618 0 0 Z " fill="#F0F0F0" transform="translate(165,95)"/>
<path d="M0 0 C3 1 3 1 3.94921875 2.84765625 C4.19285156 3.57855469 4.43648438 4.30945313 4.6875 5.0625 C4.93886719 5.79597656 5.19023438 6.52945313 5.44921875 7.28515625 C5.63097656 7.85105469 5.81273438 8.41695312 6 9 C5.01 9 4.02 9 3 9 C0 3.375 0 3.375 0 0 Z " fill="#EEEEEE" transform="translate(68,176)"/>
<path d="M0 0 C0.33 0 0.66 0 1 0 C1 1.65 1 3.3 1 5 C0.34 5 -0.32 5 -1 5 C-1.66 6.98 -2.32 8.96 -3 11 C-3.66 11 -4.32 11 -5 11 C-4.32902328 6.80639551 -2.1441606 3.59665648 0 0 Z " fill="#E9E9E9" transform="translate(74,58)"/>
<path d="M0 0 C0.66 0 1.32 0 2 0 C2.69965443 1.26418246 3.38434763 2.53665402 4.0625 3.8125 C4.63677734 4.87404297 4.63677734 4.87404297 5.22265625 5.95703125 C6 8 6 8 5 11 C4.15841464 9.73461631 3.32700252 8.46246221 2.5 7.1875 C1.80390625 6.12595703 1.80390625 6.12595703 1.09375 5.04296875 C0 3 0 3 0 0 Z " fill="#EDEDED" transform="translate(131,70)"/>
<path d="M0 0 C4.42974974 1.47658325 5.96862506 4.93725011 8 9 C6.25 8.875 6.25 8.875 4 8 C0 2.77777778 0 2.77777778 0 0 Z " fill="#F1F1F1" transform="translate(141,54)"/>
<path d="M0 0 C0.99 0.66 1.98 1.32 3 2 C2.34 2 1.68 2 1 2 C0.9175 2.5775 0.835 3.155 0.75 3.75 C-0.20531013 6.6159304 -1.78469173 7.9990764 -4 10 C-3.29445932 6.33118845 -1.72264494 3.29549466 0 0 Z " fill="#E9E9E9" transform="translate(54,93)"/>
<path d="M0 0 C0.66 0 1.32 0 2 0 C1.43454163 3.95820859 0.19097652 6.6659053 -2 10 C-3.39195915 5.82412255 -1.82323219 3.86525224 0 0 Z " fill="#EBEBEB" transform="translate(136,165)"/>
<path d="M0 0 C3.36591427 2.72478774 4.44226276 6.06856792 6 10 C3 9 3 9 1.3125 6.125 C0 3 0 3 0 0 Z " fill="#E5E5E5" transform="translate(79,158)"/>
<path d="M0 0 C2.5 2.25 2.5 2.25 5 5 C5 6.32 5 7.64 5 9 C4.34 9 3.68 9 3 9 C0 3.375 0 3.375 0 0 Z " fill="#ECEDED" transform="translate(123,56)"/>
<path d="M0 0 C3.32901247 2.21934164 3.75023244 3.34683329 5 7 C4.34 7.66 3.68 8.32 3 9 C3 8.01 3 7.02 3 6 C2.34 6 1.68 6 1 6 C0.34 4.35 -0.32 2.7 -1 1 C-0.67 0.67 -0.34 0.34 0 0 Z " fill="#EAEAE8" transform="translate(106,134)"/>
<path d="M0 0 C3.86107457 2.57404971 3.94319692 4.61020259 5 9 C4.34 9 3.68 9 3 9 C0.56839395 5.63316085 0 4.26649636 0 0 Z " fill="#EEEEEE" transform="translate(149,65)"/>
<path d="M0 0 C0.33 0.66 0.66 1.32 1 2 C0.0625 4.625 0.0625 4.625 -1 7 C-1.99 7 -2.98 7 -4 7 C-3.39816251 4.97954558 -2.72693904 2.97888961 -2 1 C-1.34 0.67 -0.68 0.34 0 0 Z " fill="#F0F0F0" transform="translate(183,157)"/>
<path d="M0 0 C0.66 0.66 1.32 1.32 2 2 C1.1875 4.4375 1.1875 4.4375 0 7 C-0.99 7.33 -1.98 7.66 -3 8 C-1.125 1.125 -1.125 1.125 0 0 Z " fill="#E7E7E7" transform="translate(65,109)"/>
<path d="M0 0 C0.66 0.33 1.32 0.66 2 1 C1.75 3.375 1.75 3.375 1 6 C-1.0625 7.3125 -1.0625 7.3125 -3 8 C-2.690625 7.236875 -2.38125 6.47375 -2.0625 5.6875 C-1.32106407 3.81210323 -0.63771783 1.91315348 0 0 Z " fill="#EAEBE8" transform="translate(97,90)"/>
<path d="M0 0 C0.33 1.65 0.66 3.3 1 5 C-1.66666667 3.66666667 -4.33333333 2.33333333 -7 1 C-4.53721199 -0.231394 -2.7204945 -0.07159196 0 0 Z " fill="#F5F5F5" transform="translate(119,52)"/>
<path d="M0 0 C1.625 1.625 1.625 1.625 3 4 C2.1875 7.25 2.1875 7.25 1 10 C0.66666667 8.66666667 0.33333333 7.33333333 0 6 C-0.20625 5.29875 -0.4125 4.5975 -0.625 3.875 C-1 2 -1 2 0 0 Z " fill="#BFBDB4" transform="translate(118,154)"/>
<path d="M0 0 C0.99 0 1.98 0 3 0 C3.33 1.32 3.66 2.64 4 4 C2.35 4.33 0.7 4.66 -1 5 C-1.33 4.34 -1.66 3.68 -2 3 C-1.01 2.67 -0.02 2.34 1 2 C0.67 1.34 0.34 0.68 0 0 Z " fill="#EAEAEA" transform="translate(148,102)"/>
<path d="M0 0 C1.32 0 2.64 0 4 0 C4.33 2.64 4.66 5.28 5 8 C2.27573689 5.64722731 1.1858237 3.37503669 0 0 Z " fill="#BCBCB0" transform="translate(104,95)"/>
<path d="M0 0 C1.1875 1.6875 1.1875 1.6875 2 4 C0.625 6.75 0.625 6.75 -1 9 C-1.66 8.67 -2.32 8.34 -3 8 C-2.01 5.36 -1.02 2.72 0 0 Z " fill="#EBEBEB" transform="translate(83,77)"/>
<path d="" fill="#000000" transform="translate(0,0)"/>
<path d="" fill="#000000" transform="translate(0,0)"/>
<path d="" fill="#000000" transform="translate(0,0)"/>
<path d="" fill="#000000" transform="translate(0,0)"/>
<path d="" fill="#000000" transform="translate(0,0)"/>
<path d="" fill="#000000" transform="translate(0,0)"/>
<path d="" fill="#000000" transform="translate(0,0)"/>
<path d="" fill="#000000" transform="translate(0,0)"/>
<path d="" fill="#000000" transform="translate(0,0)"/>
<path d="" fill="#000000" transform="translate(0,0)"/>
<path d="" fill="#000000" transform="translate(0,0)"/>
<path d="" fill="#000000" transform="translate(0,0)"/>
<path d="" fill="#000000" transform="translate(0,0)"/>
<path d="" fill="#000000" transform="translate(0,0)"/>
<path d="" fill="#000000" transform="translate(0,0)"/>
<path d="" fill="#000000" transform="translate(0,0)"/>
<path d="" fill="#000000" transform="translate(0,0)"/>
<path d="" fill="#000000" transform="translate(0,0)"/>
<path d="" fill="#000000" transform="translate(0,0)"/>
<path d="" fill="#000000" transform="translate(0,0)"/>
<path d="" fill="#000000" transform="translate(0,0)"/>
<path d="" fill="#000000" transform="translate(0,0)"/>
<path d="" fill="#000000" transform="translate(0,0)"/>
<path d="" fill="#000000" transform="translate(0,0)"/>
<path d="" fill="#000000" transform="translate(0,0)"/>
<path d="" fill="#000000" transform="translate(0,0)"/>
<path d="" fill="#000000" transform="translate(0,0)"/>
<path d="" fill="#000000" transform="translate(0,0)"/>
<path d="" fill="#000000" transform="translate(0,0)"/>
<path d="" fill="#000000" transform="translate(0,0)"/>
<path d="" fill="#000000" transform="translate(0,0)"/>
<path d="" fill="#000000" transform="translate(0,0)"/>
<path d="" fill="#000000" transform="translate(0,0)"/>
<path d="" fill="#000000" transform="translate(0,0)"/>
<path d="" fill="#000000" transform="translate(0,0)"/>
<path d="" fill="#000000" transform="translate(0,0)"/>
<path d="" fill="#000000" transform="translate(0,0)"/>
<path d="" fill="#000000" transform="translate(0,0)"/>
<path d="" fill="#000000" transform="translate(0,0)"/>
<path d="" fill="#000000" transform="translate(0,0)"/>
<path d="" fill="#000000" transform="translate(0,0)"/>
<path d="" fill="#000000" transform="translate(0,0)"/>
<path d="" fill="#000000" transform="translate(0,0)"/>
<path d="" fill="#000000" transform="translate(0,0)"/>
<path d="" fill="#000000" transform="translate(0,0)"/>
<path d="" fill="#000000" transform="translate(0,0)"/>
<path d="" fill="#000000" transform="translate(0,0)"/>
<path d="" fill="#000000" transform="translate(0,0)"/>
<path d="" fill="#000000" transform="translate(0,0)"/>
<path d="" fill="#000000" transform="translate(0,0)"/>
<path d="" fill="#000000" transform="translate(0,0)"/>
<path d="" fill="#000000" transform="translate(0,0)"/>
<path d="" fill="#000000" transform="translate(0,0)"/>
<path d="" fill="#000000" transform="translate(0,0)"/>
<path d="" fill="#000000" transform="translate(0,0)"/>
<path d="" fill="#000000" transform="translate(0,0)"/>
<path d="" fill="#000000" transform="translate(0,0)"/>
<path d="" fill="#000000" transform="translate(0,0)"/>
<path d="" fill="#000000" transform="translate(0,0)"/>
<path d="" fill="#000000" transform="translate(0,0)"/>
<path d="" fill="#000000" transform="translate(0,0)"/>
<path d="" fill="#000000" transform="translate(0,0)"/>
<path d="" fill="#000000" transform="translate(0,0)"/>
<path d="" fill="#000000" transform="translate(0,0)"/>
<path d="" fill="#000000" transform="translate(0,0)"/>
<path d="" fill="#000000" transform="translate(0,0)"/>
<path d="" fill="#000000" transform="translate(0,0)"/>
<path d="" fill="#000000" transform="translate(0,0)"/>
<path d="" fill="#000000" transform="translate(0,0)"/>
<path d="" fill="#000000" transform="translate(0,0)"/>
<path d="" fill="#000000" transform="translate(0,0)"/>
<path d="" fill="#000000" transform="translate(0,0)"/>
<path d="" fill="#000000" transform="translate(0,0)"/>
<path d="" fill="#000000" transform="translate(0,0)"/>
<path d="" fill="#000000" transform="translate(0,0)"/>
<path d="" fill="#000000" transform="translate(0,0)"/>
<path d="" fill="#000000" transform="translate(0,0)"/>
<path d="" fill="#000000" transform="translate(0,0)"/>
<path d="" fill="#000000" transform="translate(0,0)"/>
<path d="" fill="#000000" transform="translate(0,0)"/>
<path d="" fill="#000000" transform="translate(0,0)"/>
<path d="" fill="#000000" transform="translate(0,0)"/>
<path d="" fill="#000000" transform="translate(0,0)"/>
<path d="" fill="#000000" transform="translate(0,0)"/>
<path d="" fill="#000000" transform="translate(0,0)"/>
<path d="" fill="#000000" transform="translate(0,0)"/>
<path d="" fill="#000000" transform="translate(0,0)"/>
<path d="" fill="#000000" transform="translate(0,0)"/>
<path d="" fill="#000000" transform="translate(0,0)"/>
<path d="" fill="#000000" transform="translate(0,0)"/>
<path d="" fill="#000000" transform="translate(0,0)"/>
</svg>
